<mxfile host="Electron" agent="Mozilla/5.0 (Windows NT 10.0; Win64; x64) AppleWebKit/537.36 (KHTML, like Gecko) draw.io/24.7.8 Chrome/128.0.6613.36 Electron/32.0.1 Safari/537.36" version="24.7.8">
  <diagram id="C5RBs43oDa-KdzZeNtuy" name="Page-1">
    <mxGraphModel dx="794" dy="519" grid="1" gridSize="10" guides="1" tooltips="1" connect="1" arrows="1" fold="1" page="1" pageScale="1" pageWidth="827" pageHeight="1169" math="0" shadow="0">
      <root>
        <mxCell id="WIyWlLk6GJQsqaUBKTNV-0" />
        <mxCell id="WIyWlLk6GJQsqaUBKTNV-1" parent="WIyWlLk6GJQsqaUBKTNV-0" />
        <mxCell id="WIyWlLk6GJQsqaUBKTNV-2" value="" style="rounded=0;html=1;jettySize=auto;orthogonalLoop=1;fontSize=11;endArrow=block;endFill=0;endSize=8;strokeWidth=1;shadow=0;labelBackgroundColor=none;edgeStyle=orthogonalEdgeStyle;" parent="WIyWlLk6GJQsqaUBKTNV-1" source="WIyWlLk6GJQsqaUBKTNV-3" target="WIyWlLk6GJQsqaUBKTNV-6" edge="1">
          <mxGeometry relative="1" as="geometry" />
        </mxCell>
        <mxCell id="WIyWlLk6GJQsqaUBKTNV-3" value="LOJA" style="rounded=1;whiteSpace=wrap;html=1;fontSize=12;glass=0;strokeWidth=1;shadow=0;" parent="WIyWlLk6GJQsqaUBKTNV-1" vertex="1">
          <mxGeometry x="20" y="40" width="120" height="40" as="geometry" />
        </mxCell>
        <mxCell id="WIyWlLk6GJQsqaUBKTNV-5" value="" style="edgeStyle=orthogonalEdgeStyle;rounded=0;html=1;jettySize=auto;orthogonalLoop=1;fontSize=11;endArrow=block;endFill=0;endSize=8;strokeWidth=1;shadow=0;labelBackgroundColor=none;" parent="WIyWlLk6GJQsqaUBKTNV-1" source="WIyWlLk6GJQsqaUBKTNV-6" target="WIyWlLk6GJQsqaUBKTNV-7" edge="1">
          <mxGeometry y="10" relative="1" as="geometry">
            <mxPoint as="offset" />
          </mxGeometry>
        </mxCell>
        <mxCell id="ckm62V2K4iA2-DFwFN0Y-3" value="" style="edgeStyle=orthogonalEdgeStyle;rounded=0;orthogonalLoop=1;jettySize=auto;html=1;" edge="1" parent="WIyWlLk6GJQsqaUBKTNV-1" source="WIyWlLk6GJQsqaUBKTNV-6" target="ckm62V2K4iA2-DFwFN0Y-1">
          <mxGeometry relative="1" as="geometry" />
        </mxCell>
        <mxCell id="WIyWlLk6GJQsqaUBKTNV-6" value="POSSUI" style="rhombus;whiteSpace=wrap;html=1;shadow=0;fontFamily=Helvetica;fontSize=12;align=center;strokeWidth=1;spacing=6;spacingTop=-4;" parent="WIyWlLk6GJQsqaUBKTNV-1" vertex="1">
          <mxGeometry x="200" y="20" width="100" height="80" as="geometry" />
        </mxCell>
        <mxCell id="ckm62V2K4iA2-DFwFN0Y-22" value="" style="edgeStyle=orthogonalEdgeStyle;rounded=0;orthogonalLoop=1;jettySize=auto;html=1;" edge="1" parent="WIyWlLk6GJQsqaUBKTNV-1" source="WIyWlLk6GJQsqaUBKTNV-7" target="ckm62V2K4iA2-DFwFN0Y-21">
          <mxGeometry relative="1" as="geometry" />
        </mxCell>
        <mxCell id="WIyWlLk6GJQsqaUBKTNV-7" value="SITE" style="rounded=1;whiteSpace=wrap;html=1;fontSize=12;glass=0;strokeWidth=1;shadow=0;" parent="WIyWlLk6GJQsqaUBKTNV-1" vertex="1">
          <mxGeometry x="360" y="40" width="120" height="40" as="geometry" />
        </mxCell>
        <mxCell id="ckm62V2K4iA2-DFwFN0Y-8" value="" style="edgeStyle=orthogonalEdgeStyle;rounded=0;orthogonalLoop=1;jettySize=auto;html=1;" edge="1" parent="WIyWlLk6GJQsqaUBKTNV-1" source="ckm62V2K4iA2-DFwFN0Y-1" target="ckm62V2K4iA2-DFwFN0Y-7">
          <mxGeometry relative="1" as="geometry" />
        </mxCell>
        <mxCell id="ckm62V2K4iA2-DFwFN0Y-1" value="CLIENTES" style="rounded=1;whiteSpace=wrap;html=1;" vertex="1" parent="WIyWlLk6GJQsqaUBKTNV-1">
          <mxGeometry x="190" y="160" width="120" height="40" as="geometry" />
        </mxCell>
        <mxCell id="ckm62V2K4iA2-DFwFN0Y-9" value="" style="edgeStyle=orthogonalEdgeStyle;rounded=0;orthogonalLoop=1;jettySize=auto;html=1;" edge="1" parent="WIyWlLk6GJQsqaUBKTNV-1" source="ckm62V2K4iA2-DFwFN0Y-7" target="WIyWlLk6GJQsqaUBKTNV-7">
          <mxGeometry relative="1" as="geometry" />
        </mxCell>
        <mxCell id="ckm62V2K4iA2-DFwFN0Y-23" value="" style="edgeStyle=orthogonalEdgeStyle;rounded=0;orthogonalLoop=1;jettySize=auto;html=1;" edge="1" parent="WIyWlLk6GJQsqaUBKTNV-1" source="ckm62V2K4iA2-DFwFN0Y-7" target="ckm62V2K4iA2-DFwFN0Y-18">
          <mxGeometry relative="1" as="geometry" />
        </mxCell>
        <mxCell id="ckm62V2K4iA2-DFwFN0Y-26" value="" style="edgeStyle=orthogonalEdgeStyle;rounded=0;orthogonalLoop=1;jettySize=auto;html=1;" edge="1" parent="WIyWlLk6GJQsqaUBKTNV-1" source="ckm62V2K4iA2-DFwFN0Y-7" target="ckm62V2K4iA2-DFwFN0Y-25">
          <mxGeometry relative="1" as="geometry" />
        </mxCell>
        <mxCell id="ckm62V2K4iA2-DFwFN0Y-7" value="ACESSAM" style="rhombus;whiteSpace=wrap;html=1;rounded=0;" vertex="1" parent="WIyWlLk6GJQsqaUBKTNV-1">
          <mxGeometry x="365" y="140" width="110" height="80" as="geometry" />
        </mxCell>
        <mxCell id="ckm62V2K4iA2-DFwFN0Y-10" value="LOGIN" style="swimlane;fontStyle=0;childLayout=stackLayout;horizontal=1;startSize=30;horizontalStack=0;resizeParent=1;resizeParentMax=0;resizeLast=0;collapsible=1;marginBottom=0;whiteSpace=wrap;html=1;" vertex="1" parent="WIyWlLk6GJQsqaUBKTNV-1">
          <mxGeometry x="10" y="180" width="140" height="150" as="geometry">
            <mxRectangle x="130" y="270" width="80" height="30" as="alternateBounds" />
          </mxGeometry>
        </mxCell>
        <mxCell id="ckm62V2K4iA2-DFwFN0Y-12" value="Nome" style="text;strokeColor=none;fillColor=none;align=left;verticalAlign=middle;spacingLeft=4;spacingRight=4;overflow=hidden;points=[[0,0.5],[1,0.5]];portConstraint=eastwest;rotatable=0;whiteSpace=wrap;html=1;" vertex="1" parent="ckm62V2K4iA2-DFwFN0Y-10">
          <mxGeometry y="30" width="140" height="30" as="geometry" />
        </mxCell>
        <mxCell id="ckm62V2K4iA2-DFwFN0Y-13" value="CPF" style="text;strokeColor=none;fillColor=none;align=left;verticalAlign=middle;spacingLeft=4;spacingRight=4;overflow=hidden;points=[[0,0.5],[1,0.5]];portConstraint=eastwest;rotatable=0;whiteSpace=wrap;html=1;" vertex="1" parent="ckm62V2K4iA2-DFwFN0Y-10">
          <mxGeometry y="60" width="140" height="30" as="geometry" />
        </mxCell>
        <mxCell id="ckm62V2K4iA2-DFwFN0Y-16" value="Data de Nascimento" style="text;strokeColor=none;fillColor=none;align=left;verticalAlign=middle;spacingLeft=4;spacingRight=4;overflow=hidden;points=[[0,0.5],[1,0.5]];portConstraint=eastwest;rotatable=0;whiteSpace=wrap;html=1;" vertex="1" parent="ckm62V2K4iA2-DFwFN0Y-10">
          <mxGeometry y="90" width="140" height="30" as="geometry" />
        </mxCell>
        <mxCell id="ckm62V2K4iA2-DFwFN0Y-15" value="EndereÃ§o" style="text;strokeColor=none;fillColor=none;align=left;verticalAlign=middle;spacingLeft=4;spacingRight=4;overflow=hidden;points=[[0,0.5],[1,0.5]];portConstraint=eastwest;rotatable=0;whiteSpace=wrap;html=1;" vertex="1" parent="ckm62V2K4iA2-DFwFN0Y-10">
          <mxGeometry y="120" width="140" height="30" as="geometry" />
        </mxCell>
        <mxCell id="ckm62V2K4iA2-DFwFN0Y-20" value="" style="edgeStyle=orthogonalEdgeStyle;rounded=0;orthogonalLoop=1;jettySize=auto;html=1;" edge="1" parent="WIyWlLk6GJQsqaUBKTNV-1" source="ckm62V2K4iA2-DFwFN0Y-18" target="ckm62V2K4iA2-DFwFN0Y-16">
          <mxGeometry relative="1" as="geometry" />
        </mxCell>
        <mxCell id="ckm62V2K4iA2-DFwFN0Y-18" value="CADASTRAM" style="rhombus;whiteSpace=wrap;html=1;rounded=0;" vertex="1" parent="WIyWlLk6GJQsqaUBKTNV-1">
          <mxGeometry x="360" y="270" width="120" height="80" as="geometry" />
        </mxCell>
        <mxCell id="ckm62V2K4iA2-DFwFN0Y-30" value="" style="edgeStyle=orthogonalEdgeStyle;rounded=0;orthogonalLoop=1;jettySize=auto;html=1;" edge="1" parent="WIyWlLk6GJQsqaUBKTNV-1" source="ckm62V2K4iA2-DFwFN0Y-21" target="ckm62V2K4iA2-DFwFN0Y-29">
          <mxGeometry relative="1" as="geometry" />
        </mxCell>
        <mxCell id="ckm62V2K4iA2-DFwFN0Y-21" value="VENDE" style="rhombus;whiteSpace=wrap;html=1;rounded=0;glass=0;strokeWidth=1;shadow=0;" vertex="1" parent="WIyWlLk6GJQsqaUBKTNV-1">
          <mxGeometry x="530" y="25" width="100" height="70" as="geometry" />
        </mxCell>
        <mxCell id="ckm62V2K4iA2-DFwFN0Y-28" value="" style="edgeStyle=orthogonalEdgeStyle;rounded=0;orthogonalLoop=1;jettySize=auto;html=1;" edge="1" parent="WIyWlLk6GJQsqaUBKTNV-1" source="ckm62V2K4iA2-DFwFN0Y-25" target="ckm62V2K4iA2-DFwFN0Y-27">
          <mxGeometry relative="1" as="geometry" />
        </mxCell>
        <mxCell id="ckm62V2K4iA2-DFwFN0Y-31" value="" style="edgeStyle=orthogonalEdgeStyle;rounded=0;orthogonalLoop=1;jettySize=auto;html=1;" edge="1" parent="WIyWlLk6GJQsqaUBKTNV-1" source="ckm62V2K4iA2-DFwFN0Y-25" target="ckm62V2K4iA2-DFwFN0Y-29">
          <mxGeometry relative="1" as="geometry" />
        </mxCell>
        <mxCell id="ckm62V2K4iA2-DFwFN0Y-25" value="COMPRAM" style="rhombus;whiteSpace=wrap;html=1;rounded=0;" vertex="1" parent="WIyWlLk6GJQsqaUBKTNV-1">
          <mxGeometry x="540" y="140" width="110" height="80" as="geometry" />
        </mxCell>
        <mxCell id="ckm62V2K4iA2-DFwFN0Y-38" value="" style="edgeStyle=orthogonalEdgeStyle;rounded=0;orthogonalLoop=1;jettySize=auto;html=1;" edge="1" parent="WIyWlLk6GJQsqaUBKTNV-1" source="ckm62V2K4iA2-DFwFN0Y-27" target="ckm62V2K4iA2-DFwFN0Y-37">
          <mxGeometry relative="1" as="geometry" />
        </mxCell>
        <mxCell id="ckm62V2K4iA2-DFwFN0Y-27" value="PAGAM" style="rhombus;whiteSpace=wrap;html=1;rounded=0;" vertex="1" parent="WIyWlLk6GJQsqaUBKTNV-1">
          <mxGeometry x="532.5" y="270" width="125" height="80" as="geometry" />
        </mxCell>
        <mxCell id="ckm62V2K4iA2-DFwFN0Y-29" value="PRODUTOS" style="whiteSpace=wrap;html=1;rounded=1;glass=0;strokeWidth=1;shadow=0;" vertex="1" parent="WIyWlLk6GJQsqaUBKTNV-1">
          <mxGeometry x="630" y="110" width="120" height="40" as="geometry" />
        </mxCell>
        <mxCell id="ckm62V2K4iA2-DFwFN0Y-43" value="" style="edgeStyle=orthogonalEdgeStyle;rounded=0;orthogonalLoop=1;jettySize=auto;html=1;" edge="1" parent="WIyWlLk6GJQsqaUBKTNV-1" source="ckm62V2K4iA2-DFwFN0Y-37" target="ckm62V2K4iA2-DFwFN0Y-42">
          <mxGeometry relative="1" as="geometry" />
        </mxCell>
        <mxCell id="ckm62V2K4iA2-DFwFN0Y-47" style="edgeStyle=orthogonalEdgeStyle;rounded=0;orthogonalLoop=1;jettySize=auto;html=1;exitX=1;exitY=0.5;exitDx=0;exitDy=0;" edge="1" parent="WIyWlLk6GJQsqaUBKTNV-1" source="ckm62V2K4iA2-DFwFN0Y-37" target="ckm62V2K4iA2-DFwFN0Y-45">
          <mxGeometry relative="1" as="geometry" />
        </mxCell>
        <mxCell id="ckm62V2K4iA2-DFwFN0Y-37" value="RETORNA" style="rhombus;whiteSpace=wrap;html=1;strokeWidth=2;fillWeight=-1;hachureGap=8;fillStyle=cross-hatch;fillColor=#68e868;sketch=1;" vertex="1" parent="WIyWlLk6GJQsqaUBKTNV-1">
          <mxGeometry x="535" y="380" width="120" height="60" as="geometry" />
        </mxCell>
        <mxCell id="ckm62V2K4iA2-DFwFN0Y-42" value="LOGIN" style="rounded=0;whiteSpace=wrap;html=1;sketch=1;curveFitting=1;jiggle=2;fillColor=#68E868;" vertex="1" parent="WIyWlLk6GJQsqaUBKTNV-1">
          <mxGeometry x="460" y="490" width="130" height="30" as="geometry" />
        </mxCell>
        <mxCell id="ckm62V2K4iA2-DFwFN0Y-44" value="" style="shape=cross;whiteSpace=wrap;html=1;sketch=1;curveFitting=1;jiggle=2;fillColor=#68E868;" vertex="1" parent="WIyWlLk6GJQsqaUBKTNV-1">
          <mxGeometry x="600" y="490" width="30" height="30" as="geometry" />
        </mxCell>
        <mxCell id="ckm62V2K4iA2-DFwFN0Y-45" value="FORMA DE PAGAMENTO" style="rounded=0;whiteSpace=wrap;html=1;sketch=1;curveFitting=1;jiggle=2;fillColor=#68E868;" vertex="1" parent="WIyWlLk6GJQsqaUBKTNV-1">
          <mxGeometry x="638" y="485" width="112" height="40" as="geometry" />
        </mxCell>
      </root>
    </mxGraphModel>
  </diagram>
</mxfile>
